<?xml version="1.0" encoding="UTF-8"?>
<svg xmlns="http://www.w3.org/2000/svg" version="1.1" viewBox="0 0 368.5 135.4">
  <defs>
    <style>
      .cls-1 {
        fill: none;
      }

      .cls-1, .cls-2 {
        stroke-width: 0px;
      }

      .cls-2 {
        fill: #fff;
      }
    </style>
  </defs>
  <g id="safe_zone" data-name="safe zone">
    <rect class="cls-1" width="368.5" height="135.4"/>
  </g>
  <g id="Layer_1" data-name="Layer 1">
    <path class="cls-2" d="M87.5,53.7l-14.1,14.3-8.4-5.7h0s8.6-8.6,8.6-8.6h13.9ZM279.4,68.1c0,9.1-8.9,15.2-22.4,15.2s-22.3-6.1-22.3-15.2,8.9-15.2,22.3-15.2,22.4,6,22.4,15.2ZM266.8,68.1c0-4.6-3.9-7.7-9.8-7.7s-9.7,3.1-9.7,7.7,3.9,7.6,9.7,7.6,9.8-3,9.8-7.6ZM65,62.4h0s0,0,0,0l-8.6-8.6h-13.9l14.1,14.3-14.1,14.3h13.9l8.6-8.6,8.6,8.6h13.9l-14.1-14.3-8.4,5.7v-11.4ZM310.1,52.9c-5.9,0-10.8,2.2-14.7,6.6v-5.8h-11.9v28.7h11.9v-18.1c3-2.6,7.4-3.4,10.6-3.4,5,0,8,2.1,8,6v15.4h12v-15.4c0-8.8-6-14.1-15.9-14.1ZM218.7,82.4h11.9v-28.7h-11.9v28.7ZM134,68.1c0,9-7.1,15.2-17.3,15.2s-10.8-2.1-14.6-6.2v15.7h-11.9v-39.1h11.9v5.2c3.9-4,8.8-6,14.6-6,10.3,0,17.3,6.2,17.3,15.2ZM121.3,68.1c0-4.9-3.3-7.9-8.7-7.9s-7.6,1.3-10.5,3.5v8.6c3.1,2.3,7.1,3.6,10.7,3.6,5.4,0,8.6-2.9,8.6-7.8ZM179.4,67.2c0,1.3-.2,2.4-.5,3.6h-30.1c1.5,3.7,5.6,5.1,11.4,5.1s10.4-.9,15.8-3.4l1.5,7.3c-5,2.2-10.8,3.3-17.3,3.3-14.5,0-23-5.6-23-15.3s8.5-15.1,21-15.1,21.2,5.4,21.2,14.4ZM167.9,65c-.6-3.8-4-5.8-9.6-5.8s-8.7,2-9.6,5.8h19.2ZM195.6,60.6v-6.8h-11.9v28.7h11.9v-17.5c2.7-2.3,6.1-3.5,10.4-3.5s5.9.5,8,1.3l1.4-8.7c-1.6-.7-4.3-1-6.7-1-5.4,0-9.7,2.3-13.2,7.7ZM218.7,50.5h11.9v-8h-11.9v8Z"/>
  </g>
</svg>